<?xml version="1.0" encoding="UTF-8" standalone="no"?>
<!-- Created with Inkscape (http://www.inkscape.org/) -->

<svg
   width="172.83574mm"
   height="186.50613mm"
   viewBox="0 0 172.83574 186.50613"
   version="1.1"
   id="svg5"
   xmlns="http://www.w3.org/2000/svg"
   xmlns:svg="http://www.w3.org/2000/svg">
  <defs
     id="defs2" />
  <g
     id="layer1"
     transform="translate(-17.911306,-50.180153)">
    <g
       id="g816"
       transform="matrix(1.227394,0,0,1.1537738,-15.707605,19.167052)">
      <path
         style="fill:#000000;stroke-width:0.235631"
         id="path608"
         d="m 29.932189,142.36606 c 4.145892,-0.59071 8.076833,-2.48329 11.993691,-4.19534 3.296388,-1.50718 6.635924,-2.92012 9.832772,-4.75057 0.799987,-0.45806 4.889477,-2.9961 5.611419,-3.44247 5.219677,-3.40464 10.179248,-7.41291 15.041676,-11.56398 2.329621,-1.9173 4.577325,-3.99747 6.611098,-6.39698 0.886459,-1.04587 1.632299,-2.0553 2.469553,-3.1567 1.392039,-1.88957 2.674308,-3.93089 3.692153,-6.17481 0.40775,-0.89892 0.752619,-1.84092 1.129817,-2.760801 1.053676,-2.714951 2.100208,-5.434066 3.278218,-8.067607 0.574737,-1.400011 1.32729,-2.694815 1.769122,-4.176403 0.11985,-0.562276 0.07051,-0.280326 0.148823,-0.845603 0,0 -2.782175,-1.857891 -2.782175,-1.857891 v 0 c -0.05949,0.522468 -0.02038,0.262041 -0.117934,0.781138 -0.407748,1.474724 -1.144808,2.765673 -1.692872,4.157855 -1.162239,2.648741 -2.23866,5.354886 -3.283354,8.080052 -0.367896,0.91405 -0.70353,1.849849 -1.102845,2.74269 -0.996717,2.22859 -2.262472,4.2526 -3.641194,6.12142 -0.849775,1.12881 -1.536055,2.0712 -2.440709,3.14247 -2.017005,2.38847 -4.256905,4.44771 -6.5529,6.38534 -4.823845,4.1775 -9.773136,8.16367 -14.975705,11.55361 -1.80715,1.10553 -3.809007,2.3551 -5.649254,3.38536 -3.195861,1.78921 -6.49493,3.27565 -9.783958,4.76262 -3.933608,1.70007 -7.913376,3.57975 -12.097151,3.94826 0,0 2.541709,2.32834 2.541709,2.32834 z" />
      <path
         style="fill:#000000;stroke-width:0.278317"
         id="path610"
         d="m 80.50287,104.06595 c 1.193607,5.64845 3.126783,11.13022 5.232983,16.54623 1.464468,3.39761 2.922265,7.0533 5.864891,9.67739 0.585681,0.52229 1.247269,0.97015 1.870907,1.45523 4.054694,2.57642 8.360599,5.07911 13.144639,6.37705 2.01662,0.54712 2.38581,0.53642 4.37068,0.80472 0.56249,0.0384 1.125,0.0768 1.68749,0.11525 l -3.46009,-2.31004 v 0 c -0.54901,-0.0414 -1.09803,-0.0828 -1.64704,-0.12421 -1.92005,-0.28003 -2.29188,-0.47657 -4.28435,-0.83498 -0.84197,-0.15146 -1.93163,-0.30798 -2.78585,-0.6525 -0.49586,0.004 1.90572,0.81997 1.44057,0.66464 -1.17187,-0.3913 -3.51173,-1.95718 -4.530993,-2.60226 -0.623093,-0.46428 -1.28251,-0.8914 -1.86928,-1.39285 -3.006643,-2.56948 -4.534225,-6.1929 -6.027236,-9.58356 -2.123553,-5.35079 -4.091938,-10.77945 -5.077013,-16.41091 z" />
      <path
         style="fill:#000000;stroke-width:0.237921"
         id="path616"
         d="m 73.759168,146.10846 c 4.909873,-0.79132 9.842627,-1.34692 14.766694,-1.99118 5.070289,-0.69995 10.132016,-1.51286 15.168918,-2.49285 4.12158,-0.51538 8.04409,-2.03232 11.90669,-3.64168 2.70657,-1.26335 5.51176,-2.51555 7.90761,-4.41102 0.60725,-0.48043 1.16763,-1.02468 1.75144,-1.53703 2.65682,-2.44376 4.78569,-5.41056 6.98064,-8.29392 1.30489,-1.71413 2.62337,-3.41682 3.93205,-5.12777 4.43079,-6.17863 8.34323,-12.74183 12.15625,-19.346479 1.31922,-2.347936 2.60978,-4.71293 3.89864,-7.078854 0,0 -2.38435,-2.381978 -2.38435,-2.381978 v 0 c -1.26301,2.3847 -2.54608,4.757517 -3.83756,7.125821 -3.76612,6.61596 -7.65205,13.17997 -12.12569,19.30847 -1.31825,1.70271 -2.64786,3.39575 -3.95942,5.10413 -2.19041,2.85312 -4.29643,5.80926 -6.95538,8.21235 -0.57837,0.49891 -1.13276,1.03117 -1.73513,1.49672 -2.3924,1.84904 -5.18499,3.07825 -7.8533,4.36278 -3.84881,1.61388 -7.75931,3.07021 -11.86841,3.58177 -5.003561,1.00713 -10.02961,1.88347 -15.071819,2.57616 -4.958461,0.63984 -9.923156,1.19144 -14.88407,1.7986 0,0 2.206197,2.73596 2.206197,2.73596 z" />
      <path
         style="fill:#000000;stroke-width:0.264583"
         id="path618"
         d="m 129.30112,122.04581 c 2.1061,4.46553 5.3173,8.23049 8.61008,11.85395 1.10005,1.11457 2.52629,2.63579 3.77525,3.61476 2.04113,1.5999 5.86316,3.55433 7.66354,4.45086 1.2348,0.6149 3.31564,1.23171 4.63955,1.6569 3.76668,1.25292 7.7075,1.6942 11.65717,1.78014 1.79139,-0.028 0.93846,-0.002 2.55898,-0.0711 0,0 -3.17751,-2.28736 -3.17751,-2.28736 v 0 c -1.5902,0.0719 -0.75316,0.0451 -2.51131,0.0732 -3.91874,-0.0991 -7.81664,-0.58919 -11.54953,-1.83937 -0.74295,-0.24487 -1.49474,-0.46438 -2.22885,-0.73462 -0.79739,-0.29354 -1.52355,-0.82504 -2.36314,-0.95579 -0.39581,-0.0616 1.30152,0.92819 0.95019,0.73575 -2.29702,-1.25822 -4.12881,-3.10177 -5.93391,-4.96356 -3.26481,-3.54658 -6.47404,-7.24228 -8.49227,-11.67101 0,0 -3.59824,-1.64279 -3.59824,-1.64279 z" />
      <path
         style="fill:#000000;stroke-width:0.239607"
         id="path660"
         d="m 108.11996,53.992472 c 0.098,0.491832 0.21628,0.979811 0.2941,1.475504 0.17036,1.085192 0.4929,4.00222 0.60244,4.978277 0.28254,2.517627 0.5349,5.034587 0.74965,7.559379 0.34305,4.685444 0.15248,9.38881 -0.0782,14.076142 -0.26094,4.785666 -0.52678,9.571044 -0.81927,14.354899 -0.36856,5.519907 -0.67883,11.043427 -1.00557,16.565897 -0.32033,5.35591 -0.67459,10.70969 -1.01188,16.06454 -0.31868,5.67843 -0.18083,11.3808 0.0716,17.05828 0.26215,5.12765 0.87115,10.22407 1.43684,15.32164 0.31651,2.40107 0.5505,4.8332 1.25318,7.15639 0.14031,0.46389 0.95806,2.77115 1.08339,3.12755 0.66285,1.81018 1.33051,3.61806 2.04388,5.4079 0.40524,1.01672 0.77443,1.98114 1.2941,2.9428 0.23851,0.44136 0.52127,0.85586 0.78191,1.28379 1.14836,1.39388 2.55526,2.49747 4.04,3.48407 2.11507,1.40547 3.76111,2.63036 5.98416,3.54313 0.24358,0.0426 0.4841,0.11105 0.73072,0.12794 0.64134,0.044 1.11674,-0.10206 1.74794,-0.28346 1.34639,-0.38695 2.62995,-0.93598 3.91633,-1.49164 1.13395,-0.56086 2.32076,-1.00024 3.45045,-1.57057 0.80423,-0.40603 1.57435,-0.88708 2.34829,-1.34981 1.81182,-0.96365 3.12158,-2.60745 4.4022,-4.19184 1.59489,-2.07107 3.11942,-4.21733 4.46662,-6.46736 1.27102,-2.29615 2.2934,-4.72934 3.31096,-7.15161 0.58156,-1.29143 1.2655,-2.52967 1.87343,-3.80782 0,0 -2.94936,-1.9381 -2.94936,-1.9381 v 0 c -0.58351,1.29887 -1.26884,2.54573 -1.82692,3.85699 -0.97305,2.42331 -2.02508,4.8217 -3.29652,7.0983 -1.32228,2.2433 -2.80663,4.39845 -4.40125,6.44603 -1.29266,1.53451 -2.61657,3.09735 -4.39455,4.05106 -1.836,1.11966 -3.73189,2.09722 -5.71111,2.92614 -1.56576,0.66193 -3.22311,1.43127 -4.93271,1.58204 -0.55914,0.0493 -0.80179,-0.0577 -1.33962,-0.19009 -0.27272,-0.11776 -0.55066,-0.22355 -0.81814,-0.35326 -0.35226,-0.1708 -1.29841,-0.84648 -1.03974,-0.54766 0.4259,0.492 1.1586,0.64062 1.56262,1.15172 0.35238,0.44577 -0.94774,-0.61147 -1.4012,-0.9475 -1.40822,-1.04362 -1.44658,-1.17003 -2.67895,-2.39819 -0.26773,-0.41773 -0.55855,-0.82077 -0.8032,-1.2532 -0.54459,-0.96264 -0.91749,-1.90905 -1.33654,-2.93514 -0.72621,-1.77821 -1.39021,-3.58069 -2.04195,-5.38906 -0.35104,-1.03304 -0.7371,-2.05362 -1.06864,-3.09348 -0.73935,-2.31902 -1.03729,-4.74554 -1.36166,-7.15452 -0.58122,-5.09642 -1.20787,-10.19088 -1.47709,-15.31917 -0.14137,-2.81874 -0.22781,-5.63725 -0.26536,-8.46011 -0.0195,-1.4639 -0.0283,-4.39405 0.031,-5.86296 0.0362,-0.8949 0.12068,-1.78721 0.18098,-2.68082 0.31387,-5.36849 0.61088,-10.73799 0.94413,-16.10533 0.34595,-5.51714 0.71086,-11.03314 1.02797,-16.552069 0.29898,-4.773546 0.65407,-9.543988 0.88616,-14.32141 0.19283,-4.704995 0.39225,-9.424088 0.0849,-14.127043 -0.24093,-2.532267 -0.52363,-5.058206 -0.7875,-7.587854 -0.17126,-1.641914 -0.29785,-3.288763 -0.477,-4.929768 -0.0528,-0.482464 -0.12716,-0.962071 -0.19075,-1.44311 0,0 -3.0852,-1.73645 -3.0852,-1.73645 z" />
      <path
         style="fill:#000000;stroke-width:0.264583"
         id="path672"
         d="m 60.793349,53.552788 c 0.632685,-0.329986 1.247084,-0.697698 1.89806,-0.989957 4.68122,-2.101676 7.254467,-2.933134 12.588972,-4.595109 8.539261,-2.66042 17.210506,-4.847865 25.881189,-7.026058 4.73796,-1.200494 9.51274,-2.23865 14.30456,-3.196108 0,0 -2.9851,-2.07222 -2.9851,-2.07222 v 0 c -4.64835,1.10517 -9.28846,2.245077 -13.901761,3.49023 -8.627869,2.295536 -17.253595,4.599416 -25.830574,7.080433 -5.755275,1.664798 -8.129598,2.265241 -13.197859,4.248324 -0.688112,0.26924 -1.343821,0.614897 -2.015733,0.922348 0,0 3.258246,2.138117 3.258246,2.138117 z" />
      <circle
         id="path676"
         style="fill:#000000;stroke:#000000;stroke-width:0.264583"
         cx="105.30842"
         cy="38.815567"
         r="0.043285511" />
      <path
         style="fill:#000000;stroke-width:0.264583"
         id="path678"
         d="m 73.811976,26.879706 c 0.916405,2.257152 1.639165,4.587647 2.275972,6.937166 0.666377,2.493396 1.433653,4.95741 2.233586,7.410775 0.746596,2.309471 1.383705,4.649287 1.958986,7.006447 0.790665,2.863286 1.699101,5.691219 2.619012,8.51495 1.196581,3.670597 3.363677,6.911425 5.322115,10.206358 1.700247,2.640616 3.360097,5.381329 5.527802,7.678409 1.076976,1.141249 1.491231,1.409563 2.678607,2.360708 2.414371,1.458325 4.782374,3.214293 7.662934,3.527131 1.56874,0.170371 3.08062,-0.147722 4.61027,-0.439031 0.57318,-0.157922 1.16213,-0.266988 1.71955,-0.473763 1.46596,-0.543785 3.83451,-1.764861 5.17187,-2.425292 1.05597,-0.52147 4.66594,-2.313734 5.78074,-2.827028 0.87364,-0.402259 1.76376,-0.76772 2.64564,-1.151581 3.66144,-1.563846 7.52018,-2.537113 11.40106,-3.367209 0.88454,-0.20801 1.7659,-0.428604 2.65906,-0.596767 0,0 -3.24186,-2.255872 -3.24186,-2.255872 v 0 c -0.87098,0.196104 -1.73197,0.431686 -2.59801,0.648263 -3.83821,0.920028 -7.66089,1.947434 -11.28845,3.53169 -0.87699,0.392645 -1.76133,0.769255 -2.63096,1.177936 -1.94114,0.912236 -3.84674,1.898491 -5.78114,2.82494 -1.77754,0.851326 -3.38922,1.658938 -5.25345,2.284664 -0.56055,0.188148 -1.14606,0.291571 -1.71909,0.437356 -2.07602,0.359688 -3.90946,0.632627 -5.973446,-0.01651 -0.502047,-0.157898 -1.768763,-1.016135 -1.466331,-0.585417 0.413668,0.589137 1.2295,0.749094 1.844252,1.123641 -1.216787,-0.929082 -1.632728,-1.181923 -2.736972,-2.307048 -2.219227,-2.261193 -3.914579,-4.994592 -5.619052,-7.642317 -1.904957,-3.255513 -4.020536,-6.485628 -5.233823,-10.076617 -0.93186,-2.806181 -1.849506,-5.61717 -2.610011,-8.47575 -0.562367,-2.372807 -1.219375,-4.718663 -1.962007,-7.041739 -0.799121,-2.450669 -1.560555,-4.914175 -2.252962,-7.397224 -0.617754,-2.331714 -1.315066,-4.645363 -2.163495,-6.904482 0,0 -3.580397,-1.686787 -3.580397,-1.686787 z" />
    </g>
  </g>
</svg>
